<svg id="Capa_1" data-name="Capa 1" xmlns="http://www.w3.org/2000/svg" viewBox="0 0 70 49"><defs><style>.cls-1{fill:#ffbc22;}</style></defs><title>Logo</title><path class="cls-1" d="M6,8h5V51H30.39c1.52,0,2.61-.72,2.61-2.39V8h6V48.14c0,5.7-3.09,7.86-8.6,7.86H6Zm7,0h5V21h8V8h6V26H13Zm0,19H32V48.29c0,1.22-.55,1.71-1.64,1.71H13Zm5,5V45h8V32Z" transform="translate(-6 -7)"/><path class="cls-1" d="M76,28.76C76,34.58,72.8,37,66,37H57v7H75v5H52.89c-1.4,0-1.89-.3-1.89-1.7v-14c0-.85.28-1.34,1.61-1.34H66.09c3.4,0,3.91-.89,3.91-2.73V14.91c0-2.14-.8-2.91-3.91-2.91H42V7H66c6.4,0,10,2.06,10,7.7ZM75,55H52.89C46.51,55,43,52.87,43,47.23V33.47C43,29.32,44.89,26,52.82,26H62V18H43V14H66c1.75,0,2,.36,2,1.66V29.4c0,1.24-.49,1.6-2.24,1.6H52.3c-2.81,0-3.3,1.24-3.3,2.43v14c0,1.77,1.28,2.53,3,2.53H75Z" transform="translate(-6 -7)"/></svg>