<svg width="692" height="531" viewBox="0 0 692 531" fill="none" xmlns="http://www.w3.org/2000/svg">
<rect width="692" height="531" fill="white"/>
<path opacity="0.1" d="M675.23 361.034C674.61 361.486 674.04 361.926 673.432 362.353C671.191 363.938 668.844 365.368 666.408 366.635C653.65 373.357 637.921 376.64 622.602 378.871C588.244 383.876 553.167 384.849 518.239 385.803C423.863 388.393 329.258 390.976 235.112 385.01C197.914 382.656 159.899 378.716 126.192 366.635C121.36 364.908 116.624 363.004 111.982 360.922C102.59 356.703 93.5698 351.567 86.0684 345.434C79.0195 339.684 73.3035 333.08 69.8875 325.571C62.7642 309.934 66.5336 292.37 74.6674 277.042C78.0455 270.841 81.8552 264.885 86.0684 259.218C92.3485 250.587 99.2734 242.205 105.591 233.581C128.07 202.926 142.738 164.142 121.989 132.7C116.025 123.667 107.407 115.737 102.547 106.308C96.3472 94.2452 96.8246 80.8506 98.796 67.8402C99.0523 66.1881 99.323 64.5525 99.6082 62.9334C102.975 43.6407 109.31 22.855 128.845 10.811C149.136 -1.70378 177.952 -1.07184 203.134 3.37649C242.297 10.365 278.422 24.9119 314.931 38.0463C351.44 51.1806 389.636 63.1812 429.759 64.4699C465.189 65.6098 506.516 57.0787 530.031 34.9052C552.87 13.3698 595.802 11.728 626.744 24.7384C647.983 33.6661 663.829 49.7495 670.512 67.8402C671.866 71.4722 672.84 75.2342 673.42 79.0664C673.956 82.5686 674.13 86.1165 673.941 89.6544C673.848 91.4015 673.668 93.13 673.42 94.84C668.25 130.538 631.034 158.697 608.412 190.585C597.358 206.16 589.552 224.87 597.153 241.666C608.746 267.259 649.062 276.361 673.408 295.405C677.989 298.872 682.023 303.007 685.373 307.672C697.183 324.623 692.825 347.515 675.23 361.034Z" fill="#6C63FF"/>
<path opacity="0.1" d="M253.041 527.667C291.228 527.667 322.184 523.639 322.184 518.671C322.184 513.703 291.228 509.675 253.041 509.675C214.854 509.675 183.897 513.703 183.897 518.671C183.897 523.639 214.854 527.667 253.041 527.667Z" fill="#6C63FF"/>
<path d="M674.573 362.23V59.1914H84.7789V344.845C92.3113 351.127 101.369 356.412 110.817 360.755C115.471 362.899 120.224 364.859 125.076 366.635H667.537L674.573 362.23Z" fill="url(#paint0_linear)"/>
<path d="M673.432 362.354V67.865H86.0684V345.483C93.5698 351.592 102.59 356.728 111.982 360.972C116.62 363.037 121.356 364.941 126.192 366.684H666.408L673.432 362.354Z" fill="white"/>
<path d="M673.432 60.0525H86.0746V75.6279H673.432V60.0525Z" fill="#5A5773"/>
<path d="M97.8041 71.8673C100.03 71.8673 101.834 70.0643 101.834 67.8403C101.834 65.6162 100.03 63.8132 97.8041 63.8132C95.5785 63.8132 93.7744 65.6162 93.7744 67.8403C93.7744 70.0643 95.5785 71.8673 97.8041 71.8673Z" fill="white"/>
<path d="M108.653 71.8673C110.879 71.8673 112.683 70.0643 112.683 67.8403C112.683 65.6162 110.879 63.8132 108.653 63.8132C106.428 63.8132 104.624 65.6162 104.624 67.8403C104.624 70.0643 106.428 71.8673 108.653 71.8673Z" fill="white"/>
<path d="M119.503 71.8673C121.728 71.8673 123.532 70.0643 123.532 67.8403C123.532 65.6162 121.728 63.8132 119.503 63.8132C117.277 63.8132 115.473 65.6162 115.473 67.8403C115.473 70.0643 117.277 71.8673 119.503 71.8673Z" fill="white"/>
<path d="M333.195 109.858H236.172V170.784H333.195V109.858Z" fill="#6C63FF"/>
<path opacity="0.2" d="M198.857 109.858H101.834V170.784H198.857V109.858Z" fill="#5A5773"/>
<path opacity="0.2" d="M467.533 109.858H370.51V170.784H467.533V109.858Z" fill="#5A5773"/>
<path opacity="0.2" d="M198.857 196.96H101.834V257.886H198.857V196.96Z" fill="#5A5773"/>
<path opacity="0.2" d="M333.195 196.96H236.172V257.886H333.195V196.96Z" fill="#5A5773"/>
<path opacity="0.2" d="M467.533 196.96H370.51V257.886H467.533V196.96Z" fill="#5A5773"/>
<path opacity="0.2" d="M198.857 284.055H101.834V344.982H198.857V284.055Z" fill="#5A5773"/>
<path opacity="0.2" d="M333.195 284.055H236.172V344.982H333.195V284.055Z" fill="#5A5773"/>
<path opacity="0.2" d="M467.533 284.055H370.51V344.982H467.533V284.055Z" fill="#5A5773"/>
<path d="M309.42 163.226L302.724 165.592L300.294 161.565C298.434 158.468 295.855 154.23 293.952 151.151C290.592 145.736 294.987 137.484 294.987 137.484C294.987 137.484 295.781 129.2 298.608 126.648C301.435 124.095 302.222 137.484 302.222 137.484C313.573 142.638 307.492 154.763 307.492 154.763L308.595 159.57L309.42 163.226Z" fill="#EFB7B9"/>
<path opacity="0.1" d="M309.42 163.226L302.724 165.592L300.294 161.565V161.212C300.294 161.212 304.131 158.579 308.607 159.57L309.42 163.226Z" fill="black"/>
<path d="M298.608 190.362L301.962 187.524L300.281 161.986C300.281 161.986 308.961 156.051 315.384 165.338C315.384 165.338 315.123 171.013 315.384 172.562C315.644 174.111 313.58 175.66 315.384 177.203C317.188 178.745 315.384 183.912 315.384 183.912C315.384 183.912 317.423 187.524 318.713 188.553C320.002 189.581 321.298 198.1 318.713 199.903C316.128 201.705 311.279 205.838 311.279 207.641C311.279 209.444 305.08 213.836 305.08 213.836L299.637 206.643L298.608 190.362Z" fill="#FF6484"/>
<path d="M226.073 345.384C213.562 340.081 216.34 327.126 218.695 320.602C219.166 319.281 219.719 317.99 220.351 316.736L227.369 312.48C227.369 312.48 228.801 316.129 230.332 321.024C233.884 332.411 237.97 350.434 226.073 345.384Z" fill="#EFB7B9"/>
<path d="M243.27 463.588C242.423 465.237 241.798 466.991 241.411 468.804C240.791 471.721 240.521 474.701 240.605 477.682C240.654 479.745 240.828 481.096 240.828 481.096L226.891 490.674C226.891 490.674 226.972 489.553 227.108 487.905C227.468 483.518 228.218 475.377 228.925 474.324C229.414 473.593 229.755 470.657 229.972 467.931C230.189 465.205 230.276 462.813 230.276 462.813C230.276 462.813 247.046 456.531 243.27 463.588Z" fill="#EFB7B9"/>
<path d="M276.184 470.458C276.184 470.458 276.184 473.122 276.085 476.22C275.985 479.318 275.799 482.973 275.409 484.677C275.049 486.238 275.024 489.106 275.093 491.752C275.186 494.85 275.409 497.638 275.409 497.638C275.409 497.638 261.181 484.193 262.632 483.128C263.022 482.843 263.407 481.697 263.76 480.173C264.194 478.314 264.584 475.836 264.876 473.729C265.223 471.22 265.44 469.2 265.44 469.2L276.184 470.458Z" fill="#EFB7B9"/>
<path opacity="0.1" d="M243.27 463.588C242.423 465.237 241.798 466.991 241.411 468.804C237.596 468.704 233.789 468.413 230.003 467.931C230.214 465.267 230.307 462.813 230.307 462.813C230.307 462.813 247.046 456.531 243.27 463.588Z" fill="black"/>
<path opacity="0.1" d="M276.184 470.458C276.184 470.458 276.184 473.122 276.085 476.22C271.646 477.354 267.083 475.086 264.876 473.742C265.223 471.232 265.44 469.213 265.44 469.213L276.184 470.458Z" fill="black"/>
<path d="M305.315 338.681C299.637 351.072 297.312 365.767 297.312 365.767L295.247 378.158C295.247 378.158 296.283 383.573 295.247 385.636C294.212 387.699 292.148 391.057 292.148 391.057C292.148 391.057 293.698 403.696 292.148 404.985C290.598 406.273 292.148 414.011 292.148 414.011L286.983 440.032L279.755 473.562C272.786 479.243 263.512 472.019 263.512 472.019L265.558 450.094C265.558 450.094 268.658 411.682 267.368 410.108C266.079 408.535 267.883 403.659 267.883 403.659C267.883 403.659 269.693 399.012 268.403 397.209C267.114 395.406 268.658 391.534 268.658 391.534C268.658 391.534 268.143 375.798 269.693 372.186C271.243 368.574 269.693 346.233 269.693 346.233L269.073 339.276L268.713 335.422L268.682 335.044C268.682 335.044 268.447 336.587 268.062 338.978C266.922 346.258 264.491 361.344 263.531 364.448C262.877 366.685 261.99 368.846 260.883 370.897C260.883 370.897 262.222 378.635 260.883 380.698C259.544 382.762 260.679 385.085 260.679 385.085C260.679 385.085 261.968 391.534 258.094 394.112C254.219 396.689 258.094 397.984 258.094 397.984C258.094 397.984 255.254 404.179 254.225 406.75C253.196 409.321 254.225 412.946 254.225 412.946L252.161 433.837C252.161 433.837 250.35 442.603 250.611 448.539C250.871 454.474 248.286 468.141 248.286 468.141C248.286 468.141 228.41 468.141 225.348 465.818C222.285 463.494 230.462 440.832 230.462 440.832C230.462 440.832 232.787 401.106 232.266 400.078C231.745 399.049 232.266 391.305 234.077 389.762C235.887 388.22 234.077 385.116 234.077 385.116C234.077 385.116 233.562 378.92 234.077 377.378C234.591 375.835 233.996 370.668 233.996 370.668C233.996 370.668 232.266 358.029 232.012 350.805C231.758 343.581 230.462 327.337 230.462 327.337C230.462 327.337 231.814 317.288 232.018 312.505C232.093 310.746 232.88 308.546 233.878 306.477C234.995 304.14 236.28 301.888 237.722 299.736C237.722 299.736 298.88 281.67 301.447 283.467C302.129 283.944 303.121 287.184 304.1 291.874C306.828 304.978 309.494 329.574 305.315 338.681Z" fill="#444053"/>
<path d="M267.635 181.025C277.472 181.025 285.446 173.056 285.446 163.226C285.446 153.395 277.472 145.426 267.635 145.426C257.798 145.426 249.823 153.395 249.823 163.226C249.823 173.056 257.798 181.025 267.635 181.025Z" fill="#A1616A"/>
<path opacity="0.1" d="M304.1 291.887C302.048 292.94 300.672 293.665 300.672 293.665C300.672 293.665 271.764 307.338 263.543 306.564C257.182 305.944 240.946 306.297 233.872 306.471C234.989 304.134 236.274 301.882 237.716 299.73C237.716 299.73 298.88 281.67 301.447 283.467C302.129 283.956 303.121 287.184 304.1 291.887Z" fill="black"/>
<path d="M255.242 191.65C255.242 191.65 238.745 194.252 234.851 196.805C230.958 199.358 223.246 204.289 223.246 214.865C223.246 225.44 221.442 236.276 220.406 239.368C219.371 242.459 236.668 267.483 236.668 267.483L230.468 305.405C230.468 305.405 255.267 304.631 263.524 305.405C271.782 306.18 300.678 292.506 300.678 292.506C300.678 292.506 317.715 283.479 321.329 283.213C324.943 282.947 314.1 263.35 314.1 263.35C314.1 263.35 297.318 231.63 300.157 226.469C302.997 221.308 305.08 213.83 305.08 213.83L301.98 187.524C301.98 187.524 297.337 185.975 293.462 188.813C289.587 191.65 276.426 190.102 276.426 190.102L255.242 191.65Z" fill="#FF6484"/>
<path opacity="0.1" d="M227.238 237.565L220.766 239.368L218.974 263.642C218.974 263.642 221.299 270.091 218.974 272.154C216.65 274.217 216.135 318.329 216.135 318.329C216.135 318.329 223.624 323.744 232.396 319.617C232.396 319.617 231.107 314.717 234.982 296.917C238.856 279.118 238.85 270.091 238.85 270.091C238.85 270.091 238.85 247.905 240.66 244.293C242.471 240.681 240.66 231.654 240.66 231.654C240.66 231.654 237.046 226.754 237.3 224.951C237.554 223.148 227.238 237.565 227.238 237.565Z" fill="black"/>
<path opacity="0.1" d="M230.332 321.043C226.531 322.321 222.394 322.172 218.695 320.621C219.166 319.299 219.719 318.008 220.351 316.755L227.369 312.499C227.369 312.499 228.825 316.148 230.332 321.043Z" fill="black"/>
<path d="M226.848 237.565L220.394 239.368L218.59 263.641C218.59 263.641 220.915 270.091 218.59 272.154C216.265 274.217 215.751 318.329 215.751 318.329C215.751 318.329 223.246 323.737 232.012 319.593C232.012 319.593 230.723 314.692 234.591 296.892C238.46 279.093 238.466 270.066 238.466 270.066C238.466 270.066 238.466 247.88 240.27 244.268C242.074 240.656 240.27 231.63 240.27 231.63C240.27 231.63 236.655 226.729 236.916 224.926C237.176 223.123 226.848 237.565 226.848 237.565Z" fill="#FF6484"/>
<path opacity="0.1" d="M292.929 241.431C292.929 241.431 289.575 270.32 279.761 275.741C279.761 275.741 301.701 269.552 292.929 241.431Z" fill="black"/>
<path opacity="0.1" d="M243.63 244.014C243.63 244.014 255.756 249.943 252.929 254.069C250.102 258.196 243.63 244.014 243.63 244.014Z" fill="black"/>
<path opacity="0.1" d="M243.63 255.879C243.63 255.879 251.373 263.877 249.83 266.715C248.286 269.552 243.63 255.879 243.63 255.879Z" fill="black"/>
<path opacity="0.1" d="M306.09 189.587C306.09 189.587 309.128 194.742 309.42 198.1C309.711 201.458 306.09 189.587 306.09 189.587Z" fill="black"/>
<path opacity="0.1" d="M306.09 182.624C306.09 182.624 307.616 181.329 311.509 182.624C315.402 183.918 306.09 182.624 306.09 182.624Z" fill="black"/>
<path opacity="0.1" d="M291.187 333.39C284.791 334.297 278.269 333.462 272.309 330.974L269.054 339.3L268.695 335.447C269.228 332.213 270.263 328.75 272.309 327.876C272.309 327.876 279.476 333.582 291.187 333.39Z" fill="black"/>
<path opacity="0.1" d="M238.236 344.226C238.236 344.226 254.113 347.516 258.565 346.933L238.236 344.226Z" fill="black"/>
<path opacity="0.1" d="M239.885 348.383C239.885 348.383 246.662 348.092 250.047 349.448L239.885 348.383Z" fill="black"/>
<path opacity="0.1" d="M240.66 351.189C243.752 351.846 246.89 352.26 250.047 352.428L240.66 351.189Z" fill="black"/>
<path opacity="0.1" d="M240.27 386.689C240.561 386.497 253.822 383.4 255.471 385.624L240.27 386.689Z" fill="black"/>
<path opacity="0.1" d="M240.27 390.754C240.27 390.754 251.789 389.397 252.08 390.754C252.371 392.11 240.27 390.754 240.27 390.754Z" fill="black"/>
<path opacity="0.1" d="M240.27 394.427C240.27 394.427 252.564 391.887 254.014 392.507C255.465 393.126 240.27 394.427 240.27 394.427Z" fill="black"/>
<path opacity="0.1" d="M240.853 481.102L226.916 490.68C226.916 490.68 226.997 489.559 227.133 487.911C230.233 480.29 234.269 476.27 234.269 476.27C237.412 475.452 239.396 476.208 240.629 477.688C240.679 479.745 240.853 481.102 240.853 481.102Z" fill="black"/>
<path d="M242.21 489.707C240.241 494.197 239.25 499.055 239.303 503.957C239.381 507.976 238.361 511.941 236.352 515.425C236.061 515.915 235.734 516.383 235.372 516.825C235.372 516.825 225.688 516.744 222.297 513.938C221.916 513.636 221.605 513.256 221.386 512.822C219.445 508.957 225.161 494.156 225.161 494.156C228.162 482.744 234.256 476.647 234.256 476.647C245.112 473.841 242.21 489.707 242.21 489.707Z" fill="#444053"/>
<path opacity="0.1" d="M236.352 515.394C236.061 515.885 235.734 516.353 235.372 516.794C235.372 516.794 225.688 516.713 222.297 513.907C223.965 508.393 229.284 491.709 231.776 494.546C234.12 497.21 235.75 510.029 236.352 515.394Z" fill="black"/>
<path d="M235.025 495.581L234.349 520.573H237.598C237.598 520.573 238.125 498.648 239.575 495.581C241.026 492.514 235.025 495.581 235.025 495.581Z" fill="#444053"/>
<path opacity="0.1" d="M275.409 497.638C275.409 497.638 261.181 484.194 262.632 483.128C263.022 482.843 263.407 481.697 263.76 480.173C266.494 479.696 271.199 480.836 275.093 491.752C275.186 494.85 275.409 497.638 275.409 497.638Z" fill="black"/>
<path d="M277.535 512.631C277.426 512.678 277.312 512.711 277.194 512.73C275.52 513.021 269.352 512.854 265.899 512.73C265.266 512.709 264.666 512.443 264.226 511.989C263.785 511.535 263.538 510.927 263.537 510.295C263.537 509.366 263.537 508.232 263.462 507.024C263.301 503.207 262.842 498.666 261.472 497.644C259.048 495.785 257.133 489.478 261.472 481.492C261.472 481.492 269.792 475.142 275.793 494.23C275.793 494.23 276.376 499.676 278.986 501.609C281.596 503.542 278.701 512.079 277.535 512.631Z" fill="#444053"/>
<path opacity="0.1" d="M277.182 512.73C275.508 513.021 269.34 512.854 265.886 512.73C265.254 512.709 264.654 512.443 264.213 511.989C263.773 511.535 263.526 510.927 263.524 510.295C263.524 509.366 263.524 508.232 263.45 507.024C264.498 502.402 266.004 497.644 267.945 496.56C267.957 496.553 273.828 495.89 277.182 512.73Z" fill="black"/>
<path d="M262.526 495.996L264.089 516.794H266.072V494.224L262.526 495.996Z" fill="#444053"/>
<path opacity="0.1" d="M267.374 134.863C261.75 135.281 256.307 137.029 251.491 139.962C250.251 140.711 249.011 141.622 248.497 142.966C248.05 144.131 248.236 145.445 248.255 146.684C248.422 157.352 236.519 165.425 236.891 176.087C237.04 180.319 239.166 184.259 239.557 188.478C240.208 195.516 236.042 201.991 232.049 207.82C236.163 208.071 240.214 206.728 243.363 204.072C247.576 218.105 248.12 232.983 244.944 247.285H250.654C251.218 247.244 251.784 247.314 252.322 247.49C252.823 247.728 253.272 248.063 253.642 248.475C258.98 253.785 262.557 261.634 260.518 268.883L272.669 264.329C275.576 263.239 278.527 262.13 281.057 260.333C283.586 258.536 285.706 255.928 286.239 252.868C286.568 251.009 286.463 248.791 287.994 247.713C288.748 247.312 289.553 247.014 290.387 246.827C293.722 245.65 295.198 241.796 295.88 238.327C296.71 234.07 296.971 229.722 296.655 225.397C296.115 218.148 293.97 210.788 295.737 203.713C296.735 199.742 298.955 196.043 299.135 191.941C299.426 185.182 294.138 179.359 293.35 172.636C292.799 167.953 294.491 163.213 293.939 158.529C293.633 156.112 292.748 153.804 291.359 151.801C289.97 149.798 288.118 148.16 285.961 147.024C284.466 146.256 282.861 145.742 281.385 144.893C278.019 142.942 275.868 139.429 272.811 137.013C269.755 134.596 264.665 133.686 262.365 136.827L267.374 134.863Z" fill="black"/>
<path d="M267.374 134.088C261.75 134.507 256.307 136.254 251.491 139.187C250.251 139.937 249.011 140.848 248.497 142.192C248.05 143.357 248.236 144.67 248.255 145.909C248.422 156.578 236.519 164.65 236.891 175.319C237.04 179.544 239.166 183.485 239.557 187.71C240.208 194.748 236.042 201.222 232.049 207.058C236.161 207.3 240.21 205.958 243.363 203.31C247.575 217.339 248.12 232.212 244.944 246.511H250.654C251.218 246.472 251.785 246.543 252.322 246.722C252.824 246.955 253.273 247.288 253.642 247.7C258.98 253.016 262.557 260.86 260.518 268.108L272.669 263.555C275.576 262.464 278.527 261.355 281.057 259.559C283.586 257.762 285.706 255.154 286.239 252.093C286.568 250.234 286.463 248.016 287.994 246.938C288.748 246.537 289.553 246.239 290.387 246.053C293.722 244.875 295.198 241.022 295.88 237.552C296.717 233.293 296.984 228.94 296.673 224.61C296.134 217.361 293.989 210.001 295.756 202.926C296.754 198.955 298.973 195.256 299.153 191.155C299.445 184.395 294.156 178.572 293.369 171.85C292.817 167.166 294.51 162.432 293.958 157.743C293.651 155.325 292.765 153.018 291.376 151.015C289.987 149.013 288.136 147.374 285.979 146.238C284.485 145.469 282.879 144.955 281.404 144.113C278.037 142.155 275.886 138.642 272.83 136.226C269.773 133.81 264.684 132.899 262.384 136.04L267.374 134.088Z" fill="#925978"/>
<g opacity="0.1">
<path opacity="0.1" d="M248.242 143.332C248.218 143.571 248.205 143.811 248.205 144.051C248.224 143.815 248.236 143.574 248.242 143.332Z" fill="black"/>
<path opacity="0.1" d="M293.301 168.133C293.524 164.849 294.255 161.553 293.983 158.282C293.778 161.565 293.047 164.861 293.301 168.133Z" fill="black"/>
<path opacity="0.1" d="M239.557 184.458C239.197 180.616 237.406 177.023 236.984 173.188C236.9 173.891 236.869 174.599 236.891 175.307C237.04 179.489 239.117 183.398 239.538 187.561C239.641 186.53 239.647 185.49 239.557 184.458Z" fill="black"/>
<path opacity="0.1" d="M295.781 199.717C295.2 202.238 294.991 204.83 295.161 207.412C295.222 205.906 295.43 204.41 295.781 202.945C296.779 198.974 298.998 195.275 299.178 191.173C299.207 190.445 299.174 189.715 299.079 188.993C298.595 192.679 296.667 196.111 295.781 199.717Z" fill="black"/>
<path opacity="0.1" d="M243.363 200.052C240.778 202.217 237.577 203.517 234.213 203.769C233.506 204.872 232.775 205.95 232.049 207.015C236.161 207.256 240.21 205.915 243.363 203.267C245.628 210.798 246.842 218.606 246.971 226.469C247.155 217.529 245.938 208.615 243.363 200.052V200.052Z" fill="black"/>
<path opacity="0.1" d="M295.898 234.306C295.216 237.775 293.741 241.629 290.406 242.8C289.571 242.986 288.765 243.286 288.013 243.692C286.481 244.77 286.587 247 286.258 248.847C285.725 251.907 283.611 254.509 281.075 256.281C278.54 258.053 275.595 259.193 272.687 260.284L261.094 264.62C261.034 265.783 260.847 266.936 260.536 268.059L272.687 263.505C275.595 262.415 278.546 261.306 281.075 259.509C283.605 257.712 285.725 255.104 286.258 252.044C286.587 250.185 286.481 247.967 288.013 246.889C288.767 246.488 289.572 246.19 290.406 246.003C293.741 244.826 295.216 240.972 295.898 237.503C296.604 233.892 296.897 230.213 296.773 226.537C296.691 229.146 296.398 231.744 295.898 234.306V234.306Z" fill="black"/>
<path opacity="0.1" d="M253.661 244.436C253.292 244.021 252.843 243.686 252.34 243.45C251.803 243.275 251.237 243.203 250.673 243.24H245.608C245.409 244.318 245.198 245.396 244.988 246.468H250.697C251.262 246.429 251.828 246.5 252.365 246.678C252.867 246.912 253.317 247.245 253.686 247.657C257.591 251.548 260.549 256.789 261.057 262.167C261.683 255.736 258.348 249.119 253.661 244.436Z" fill="black"/>
</g>
<path opacity="0.1" d="M225.335 265.55C225.335 265.55 229.948 263.617 230.977 265.55C232.006 267.483 225.335 265.55 225.335 265.55Z" fill="black"/>
<path opacity="0.1" d="M226.966 268.864C226.966 268.864 231.578 266.931 232.613 268.864C233.649 270.797 226.966 268.864 226.966 268.864Z" fill="black"/>
<path opacity="0.1" d="M512.833 18.7224C512.833 18.7224 489.244 17.3036 492.027 33.8207C492.027 33.8207 491.476 36.7388 494.123 38.0646C494.123 38.0646 494.166 36.8255 496.541 37.253C497.386 37.3952 498.246 37.4368 499.101 37.3769C500.256 37.297 501.353 36.8423 502.226 36.082V36.082C502.226 36.082 508.853 33.3499 511.432 22.5202C511.432 22.5202 513.341 20.1535 513.292 19.5464L509.312 21.2501C509.312 21.2501 510.669 24.1186 509.597 26.5039C509.597 26.5039 509.473 21.3493 508.704 21.4732C508.549 21.4732 506.64 22.4644 506.64 22.4644C506.64 22.4644 508.977 27.4642 507.21 31.1009C507.21 31.1009 507.88 24.9426 505.908 22.83L503.094 24.4966C503.094 24.4966 505.828 29.6574 503.974 33.8703C503.974 33.8703 504.451 27.4084 502.505 24.8931L499.963 26.8694C499.963 26.8694 502.536 31.9311 500.986 35.4253C500.986 35.4253 500.781 27.8979 499.43 27.3341C499.43 27.3341 497.21 29.2918 496.875 30.0972C496.875 30.0972 498.63 33.8145 497.539 35.7351C497.539 35.7351 496.869 30.7292 496.299 30.7044C496.299 30.7044 494.086 34.0252 493.856 36.2803C493.964 34.176 494.62 32.1364 495.76 30.3636C494.483 30.6052 493.305 31.2171 492.375 32.1232C492.375 32.1232 492.716 29.7751 496.305 29.5644C496.305 29.5644 498.134 27.0491 498.624 26.8942C498.624 26.8942 495.053 26.5968 492.889 27.5571C492.889 27.5571 494.792 25.3391 499.281 26.318L501.761 24.2735C501.761 24.2735 497.061 23.654 495.065 24.3417C495.065 24.3417 497.359 22.3839 502.436 23.8089L505.164 22.1795C505.164 22.1795 501.159 21.3121 498.772 21.6281C498.772 21.6281 501.29 20.2713 505.964 21.7396L507.917 20.866C507.917 20.866 504.978 20.2898 504.123 20.1969C503.267 20.104 503.218 19.8685 503.218 19.8685C505.077 19.5593 506.985 19.7739 508.729 20.4881C508.729 20.4881 512.901 18.9826 512.833 18.7224Z" fill="#6C63FF"/>
<path opacity="0.1" d="M479.213 5.32788C479.213 5.32788 459.374 18.1587 471.408 29.8123C471.408 29.8123 472.691 32.4888 475.611 31.9931C475.611 31.9931 474.917 30.9771 477.08 29.9053C477.847 29.5193 478.565 29.043 479.219 28.4865C480.103 27.7378 480.718 26.7223 480.974 25.5932V25.5932C480.974 25.5932 484.693 19.4597 480.354 9.21243C480.354 9.21243 480.49 6.17666 480.068 5.73059L477.874 9.44786C477.874 9.44786 480.67 10.9534 481.222 13.5059C481.222 13.5059 478.066 9.43547 477.502 9.98686C477.39 10.0984 476.423 12.0128 476.423 12.0128C476.423 12.0128 481.277 14.652 482.003 18.6233C482.003 18.6233 478.903 13.2643 476.045 12.7376L474.755 15.7115C474.755 15.7115 480.025 18.2516 481.029 22.7433C481.029 22.7433 477.576 17.2541 474.52 16.3806L473.652 19.4783C473.652 19.4783 478.736 22.0556 479.548 25.7977C479.548 25.7977 474.923 19.8624 473.497 20.2218C473.497 20.2218 472.877 23.1088 473.075 23.939C473.075 23.939 476.683 25.872 476.956 28.09C476.956 28.09 473.447 24.4532 472.995 24.7568C472.995 24.7568 473.181 28.7405 474.34 30.7107C473.181 28.9516 472.501 26.9207 472.369 24.8188C471.484 25.7691 470.897 26.9583 470.682 28.2387C470.682 28.2387 469.566 26.1446 472.338 23.8523C472.338 23.8523 472.338 20.7546 472.617 20.3271C472.617 20.3271 469.566 22.1857 468.388 24.255C468.388 24.255 468.612 21.3431 472.821 19.4969L473.627 16.3682C473.627 16.3682 469.461 18.6357 468.277 20.389C468.277 20.389 468.965 17.4524 473.894 15.5937L475.134 12.6633C475.134 12.6633 471.414 14.3423 469.653 16.0088C469.653 16.0088 470.893 13.4191 475.518 11.8393L476.572 9.98067C476.572 9.98067 473.863 11.2569 473.119 11.6906C472.375 12.1243 472.195 11.9632 472.195 11.9632C473.509 10.6127 475.172 9.65383 477 9.19384C477 9.19384 479.424 5.50135 479.213 5.32788Z" fill="#6C63FF"/>
<path opacity="0.1" d="M449.021 20.2774C449.021 20.2774 437.161 40.7224 453.175 45.6354C453.175 45.6354 455.537 47.4383 457.911 45.6354C457.911 45.6354 456.839 45.0531 458.277 43.1139C458.777 42.4218 459.193 41.6731 459.517 40.8835C459.965 39.8152 460.054 38.6303 459.771 37.507V37.507C459.771 37.507 460.298 30.3574 451.774 23.1893C451.774 23.1893 450.534 20.4261 449.914 20.2217L449.647 24.5585C449.647 24.5585 452.821 24.6328 454.477 26.6588C454.477 26.6588 449.815 24.4594 449.579 25.1966C449.529 25.3453 449.536 27.489 449.536 27.489C449.536 27.489 455.109 27.6562 457.589 30.8655C457.589 30.8655 452.381 27.5013 449.61 28.3191L449.808 31.5532C449.808 31.5532 455.655 31.4293 458.587 34.9793C458.587 34.9793 453.007 31.6523 449.908 32.2594L450.528 35.4129C450.528 35.4129 456.231 35.4129 458.649 38.3744C458.649 38.3744 451.829 35.1775 450.72 36.1254C450.72 36.1254 451.47 38.9877 452.04 39.6506C452.04 39.6506 456.132 39.7374 457.384 41.5898C457.384 41.5898 452.604 39.9356 452.338 40.4189C452.338 40.4189 454.315 43.8821 456.244 45.1088C454.414 44.0724 452.886 42.5778 451.811 40.772C451.454 42.0196 451.472 43.3443 451.86 44.5822C451.86 44.5822 449.914 43.2254 451.34 39.9232C451.34 39.9232 449.914 37.1601 449.994 36.6582C449.994 36.6582 448.135 39.7126 448.011 42.0731C448.011 42.0731 446.882 39.378 449.796 35.828L449.095 32.6684C449.095 32.6684 446.411 36.5777 446.151 38.6779C446.151 38.6779 445.432 35.7475 448.984 31.8629L448.748 28.6971C448.748 28.6971 446.182 31.8877 445.388 34.1615C445.388 34.1615 445.301 31.2992 448.717 27.7863L448.81 25.6489C448.81 25.6489 446.95 28.0094 446.51 28.7466C446.07 29.4839 445.81 29.3786 445.81 29.3786C446.368 27.578 447.416 25.9674 448.835 24.7258C448.835 24.7258 449.281 20.3332 449.021 20.2774Z" fill="#6C63FF"/>
<path d="M550.849 253.338C549.094 253.338 547.379 253.858 545.92 254.832C544.461 255.807 543.324 257.191 542.652 258.811C541.981 260.431 541.805 262.214 542.148 263.934C542.49 265.653 543.335 267.233 544.576 268.473C545.816 269.713 547.397 270.557 549.118 270.899C550.839 271.241 552.623 271.066 554.244 270.395C555.865 269.724 557.25 268.587 558.225 267.129C559.2 265.671 559.72 263.957 559.72 262.204C559.714 259.855 558.777 257.603 557.115 255.942C555.452 254.281 553.2 253.345 550.849 253.338V253.338ZM524.91 183.77V192.635H533.781L549.751 224.963L543.074 235.824C542.346 237.108 541.963 238.56 541.965 240.037C541.965 245.972 546.025 248.902 551.531 248.902H603.402V240.377H552.616C552.467 240.386 552.319 240.364 552.18 240.311C552.042 240.259 551.916 240.177 551.811 240.073C551.706 239.968 551.624 239.842 551.572 239.703C551.519 239.565 551.497 239.416 551.506 239.268C551.623 238.885 551.781 238.515 551.977 238.166L556.41 231.171H589.459C591.056 231.184 592.626 230.757 593.995 229.936C595.365 229.115 596.481 227.932 597.221 226.518L613.197 199.066C613.509 198.369 613.661 197.611 613.644 196.848C613.638 196.278 613.517 195.714 613.289 195.191C613.061 194.668 612.73 194.196 612.316 193.803C611.902 193.411 611.413 193.105 610.879 192.904C610.345 192.703 609.775 192.612 609.205 192.635H543.546L539.33 183.77H524.91ZM594.524 253.338C592.77 253.339 591.055 253.86 589.597 254.835C588.139 255.81 587.003 257.195 586.333 258.815C585.662 260.436 585.487 262.218 585.83 263.937C586.173 265.657 587.019 267.236 588.26 268.475C589.501 269.714 591.081 270.558 592.802 270.9C594.523 271.241 596.306 271.065 597.927 270.394C599.548 269.723 600.933 268.587 601.907 267.129C602.882 265.671 603.402 263.957 603.402 262.204C603.396 259.854 602.458 257.601 600.794 255.94C599.131 254.279 596.876 253.343 594.524 253.338V253.338Z" fill="#6C63FF"/>
<path d="M583.173 208.297H575.734V200.863H570.154V208.297H562.715V213.873H570.154V221.308H575.734V213.873H583.173V208.297Z" fill="white"/>
<defs>
<linearGradient id="paint0_linear" x1="379.673" y1="366.635" x2="379.673" y2="59.1914" gradientUnits="userSpaceOnUse">
<stop stop-color="#808080" stop-opacity="0.25"/>
<stop offset="0.54" stop-color="#808080" stop-opacity="0.12"/>
<stop offset="1" stop-color="#808080" stop-opacity="0.1"/>
</linearGradient>
</defs>
</svg>
