<svg xmlns="http://www.w3.org/2000/svg" viewBox="0 0 635 842"><defs><style>.cls-1{fill:#113f67;}.cls-2{fill:red;}</style></defs><title>Recurso 1</title><g id="Capa_2" data-name="Capa 2"><g id="Capa_1-2" data-name="Capa 1"><polygon class="cls-1" points="535.5 841.5 535.5 616.5 379.5 616.5 379.5 841.5 280.5 841.5 280.5 616.5 99.5 616.5 99.5 841.5 0.5 841.5 0.5 219.5 634.5 219.5 634.5 318.5 99.5 318.5 99.5 517.5 280.5 517.5 280.5 369.5 379.5 369.5 379.5 517.5 535.5 517.5 535.5 369.5 634.5 369.5 634.5 841.5 535.5 841.5"/><path d="M634,220v98H99V518H281V370h98V518H536V370h98V841H536V616H379V841H281V616H99V841H1V220H634m1-1H0V842H100V617H280V842H380V617H535V842H635V369H535V517H380V369H280V517H100V319H635V219Z"/><polygon class="cls-2" points="298.5 168.5 298.5 112.5 242.5 112.5 242.5 57.5 298.5 57.5 298.5 0.5 353.5 0.5 353.5 57.5 410.5 57.5 410.5 112.5 353.5 112.5 353.5 168.5 298.5 168.5"/><path d="M353,1V58h57v54H353v56H299V112H243V58h56V1h54m1-1H298V57H242v56h56v56h56V113h57V57H354V0Z"/></g></g></svg>